# xmcd CD database file
#
# Track frame offsets:
#	150
#	18496
#	36579
#	51341
#	67338
#	90089
#	107871
#	125691
#	143692
#	165591
#	187486
#	207762
#	227256
#
# Disc length: 3295 seconds
#
# Revision: 1
# Processed by: cddbd v1.5.2PL0 Copyright (c) Steve Scherf et al.
# Submitted via: CDex 1.51
#
DISCID=bb0cdd0d
DTITLE=Ayo - Joyful
DYEAR=2006
DGENRE=Jazz
TTITLE0=Down On My Knees
TTITLE1=Without You
TTITLE2=Letter By Letter
TTITLE3=How Many Times?
TTITLE4=And It's Supposed To Be Love
TTITLE5=Watching You
TTITLE6=Only You
TTITLE7=Help Is Coming
TTITLE8=These Days
TTITLE9=Life Is Real
TTITLE10=What Is Love?
TTITLE11=Neva Been
TTITLE12=Welcome Into My World
EXTD=YEAR: 2006
EXTT0=
EXTT1=
EXTT2=
EXTT3=
EXTT4=
EXTT5=
EXTT6=
EXTT7=
EXTT8=
EXTT9=
EXTT10=
EXTT11=
EXTT12=
PLAYORDER=
